<?xml version="1.0" standalone="no"?>
<!DOCTYPE svg PUBLIC "-//W3C//DTD SVG 1.1//EN" "http://www.w3.org/Graphics/SVG/1.1/DTD/svg11.dtd">
<!--Generator: Xara Designer (www.xara.com), SVG filter version: 6.6.0.1-->
<svg fill="none" fill-rule="evenodd" stroke="black" stroke-width="0.501" stroke-linejoin="bevel" stroke-miterlimit="10" font-family="Times New Roman" font-size="16" style="font-variant-ligatures:none" xmlns:xlink="http://www.w3.org/1999/xlink" xmlns="http://www.w3.org/2000/svg" version="1.1" overflow="visible" width="73.002pt" height="73.002pt" viewBox="35.031 -716.094 73.002 73.002">
 <defs>
	</defs>
 <g id="Page background" transform="scale(1 -1)"/>
 <g id="Layer 1" transform="scale(1 -1)">
  <path d="M 35.031,679.593 C 35.031,699.72 51.403,716.094 71.531,716.094 C 91.658,716.094 108.033,699.72 108.033,679.593 C 108.033,659.465 91.658,643.092 71.531,643.092 C 51.403,643.092 35.031,659.465 35.031,679.593 Z M 102.311,679.593 C 102.311,696.563 88.502,710.372 71.531,710.372 C 54.56,710.372 40.753,696.563 40.753,679.593 C 40.753,662.621 54.56,648.814 71.531,648.814 C 88.502,648.814 102.311,662.621 102.311,679.593 Z M 68.671,665.286 L 68.671,676.732 L 57.226,676.732 C 55.645,676.732 54.365,678.012 54.365,679.592 C 54.365,681.172 55.645,682.453 57.226,682.453 L 68.671,682.453 L 68.671,693.9 C 68.671,695.479 69.951,696.76 71.532,696.76 C 73.112,696.76 74.393,695.479 74.393,693.9 L 74.393,682.454 L 85.838,682.454 C 87.418,682.454 88.699,681.173 88.699,679.593 C 88.699,678.012 87.418,676.732 85.838,676.732 L 74.392,676.732 L 74.392,665.286 C 74.392,663.706 73.111,662.426 71.531,662.426 C 69.951,662.426 68.671,663.706 68.671,665.286 Z" fill="#ffffff" fill-rule="evenodd" stroke="none" stroke-width="0.5" marker-start="none" marker-end="none"/>
 </g>
</svg>
