<?xml version="1.0" standalone="no"?>
<!DOCTYPE svg PUBLIC "-//W3C//DTD SVG 1.1//EN" "http://www.w3.org/Graphics/SVG/1.1/DTD/svg11.dtd">
<!--Generator: Xara Designer (www.xara.com), SVG filter version: 6.6.0.1-->
<svg fill="none" fill-rule="evenodd" stroke="black" stroke-width="0.501" stroke-linejoin="bevel" stroke-miterlimit="10" font-family="Times New Roman" font-size="16" style="font-variant-ligatures:none" xmlns:xlink="http://www.w3.org/1999/xlink" xmlns="http://www.w3.org/2000/svg" version="1.1" overflow="visible" width="88.486pt" height="72pt" viewBox="501.937 -665.151 88.486 72">
 <defs>
	</defs>
 <g id="Page background" transform="scale(1 -1)"/>
 <g id="Layer 1" transform="scale(1 -1)">
  <g id="Group" fill="#ffffff" fill-rule="nonzero" stroke-linejoin="miter" stroke="none" stroke-width="0.297">
   <path d="M 554.427,621.163 L 521.44,621.163 C 519.778,621.163 518.431,619.815 518.431,618.153 C 518.431,616.491 519.778,615.144 521.44,615.144 L 554.427,615.144 C 556.09,615.144 557.437,616.491 557.437,618.153 C 557.437,619.815 556.09,621.163 554.427,621.163 Z" marker-start="none" marker-end="none"/>
   <path d="M 589.175,637.091 C 588.389,637.655 587.38,637.81 586.462,637.505 L 573.898,633.315 C 573.616,636.943 571.514,640.125 568.395,641.836 C 568.417,642.186 568.433,642.54 568.433,642.897 C 568.433,652.135 560.916,659.652 551.678,659.652 C 546.664,659.652 542.162,657.436 539.09,653.935 C 535.968,660.557 529.231,665.151 521.44,665.151 C 510.685,665.151 501.937,656.401 501.937,645.646 C 501.937,642.938 502.491,640.36 503.493,638.014 C 502.48,636.356 501.937,634.451 501.937,632.483 L 501.937,603.824 C 501.937,597.939 506.724,593.151 512.61,593.151 L 563.258,593.151 C 568.862,593.151 573.469,597.496 573.895,602.993 L 586.462,598.803 C 586.773,598.699 587.095,598.648 587.413,598.648 C 588.038,598.648 588.656,598.841 589.175,599.216 C 589.96,599.782 590.423,600.691 590.423,601.658 L 590.423,634.649 C 590.425,635.617 589.96,636.525 589.175,637.091 Z M 551.678,653.632 C 557.597,653.632 562.413,648.817 562.413,642.897 C 562.413,636.976 557.597,632.161 551.678,632.161 C 545.758,632.161 540.942,636.976 540.942,642.897 C 540.942,648.817 545.758,653.632 551.678,653.632 Z M 521.44,659.131 C 528.875,659.131 534.923,653.082 534.923,645.646 C 534.923,638.21 528.875,632.16 521.44,632.16 C 514.005,632.16 507.957,638.21 507.957,645.646 C 507.957,653.082 514.005,659.131 521.44,659.131 Z M 567.911,603.824 C 567.911,601.258 565.823,599.17 563.258,599.17 L 512.61,599.17 C 510.043,599.17 507.957,601.258 507.957,603.824 L 507.957,631.573 C 511.462,628.212 516.212,626.141 521.44,626.141 C 527.969,626.141 533.756,629.37 537.296,634.312 C 540.226,629.421 545.575,626.141 551.678,626.141 C 558.282,626.141 564.005,629.983 566.732,635.548 C 567.466,634.715 567.911,633.63 567.911,632.483 L 567.911,603.824 Z M 584.405,605.833 L 573.931,609.326 L 573.931,626.982 L 584.405,630.472 L 584.405,605.833 Z" marker-start="none" marker-end="none"/>
  </g>
 </g>
</svg>
