<?xml version="1.0" standalone="no"?>
<!DOCTYPE svg PUBLIC "-//W3C//DTD SVG 1.1//EN" "http://www.w3.org/Graphics/SVG/1.1/DTD/svg11.dtd">
<!--Generator: Xara Designer (www.xara.com), SVG filter version: 6.6.0.0-->
<svg fill="none" fill-rule="evenodd" stroke="black" stroke-width="0.501" stroke-linejoin="bevel" stroke-miterlimit="10" font-family="Times New Roman" font-size="16" style="font-variant-ligatures:none" xmlns:xlink="http://www.w3.org/1999/xlink" xmlns="http://www.w3.org/2000/svg" version="1.1" overflow="visible" width="72pt" height="72pt" viewBox="418.801 -518.401 72 72">
 <defs>
	</defs>
 <g id="Page background" transform="scale(1 -1)"/>
 <g id="Layer 1" transform="scale(1 -1)">
  <path d="M 439.372,451.544 L 439.372,492.686 C 439.372,495.525 441.673,497.829 444.514,497.829 L 485.658,497.829 C 488.497,497.829 490.801,495.525 490.801,492.686 L 490.801,451.544 C 490.801,448.701 488.497,446.401 485.658,446.401 L 444.514,446.401 C 441.673,446.401 439.372,448.701 439.372,451.544 Z M 485.658,451.544 L 485.658,492.686 L 444.514,492.686 L 444.514,451.544 L 485.658,451.544 Z M 462.515,456.686 L 462.515,469.543 L 449.658,469.543 L 449.658,474.686 L 462.515,474.686 L 462.515,487.544 L 467.658,487.544 L 467.658,474.686 L 480.515,474.686 L 480.515,469.543 L 467.658,469.543 L 467.658,456.686 L 462.515,456.686 Z M 418.801,472.114 L 418.801,513.258 C 418.797,516.097 421.101,518.401 423.944,518.401 L 465.086,518.401 C 467.925,518.401 470.229,516.097 470.229,513.258 L 470.229,502.972 L 465.086,502.972 L 465.086,513.258 L 423.944,513.258 L 423.944,472.114 L 434.229,472.114 L 434.229,466.972 L 423.944,466.972 C 421.101,466.972 418.801,469.273 418.801,472.114 Z" stroke="none" fill-rule="nonzero" fill="#ffffff" stroke-linejoin="miter" stroke-width="0.75" marker-start="none" marker-end="none"/>
 </g>
</svg>
