<?xml version="1.0" standalone="no"?>
<!DOCTYPE svg PUBLIC "-//W3C//DTD SVG 1.1//EN" "http://www.w3.org/Graphics/SVG/1.1/DTD/svg11.dtd">
<!--Generator: Xara Designer (www.xara.com), SVG filter version: 6.6.0.1-->
<svg fill="none" fill-rule="evenodd" stroke="black" stroke-width="0.501" stroke-linejoin="bevel" stroke-miterlimit="10" font-family="Times New Roman" font-size="16" style="font-variant-ligatures:none" xmlns:xlink="http://www.w3.org/1999/xlink" xmlns="http://www.w3.org/2000/svg" version="1.1" overflow="visible" width="72.004pt" height="72.006pt" viewBox="636.742 -715.58 72.004 72.006">
 <defs>
	</defs>
 <g id="Page background" transform="scale(1 -1)"/>
 <g id="Layer 1" transform="scale(1 -1)">
  <path d="M 708.746,700.581 C 708.746,700.65 708.743,700.718 708.739,700.786 C 708.737,700.809 708.734,700.832 708.732,700.856 C 708.728,700.9 708.724,700.944 708.718,700.987 C 708.714,701.02 708.708,701.053 708.703,701.086 C 708.698,701.116 708.692,701.146 708.686,701.177 C 708.678,701.221 708.668,701.264 708.657,701.308 C 708.654,701.32 708.651,701.332 708.648,701.344 C 708.438,702.167 707.885,702.909 706.987,703.31 C 706.916,703.342 706.845,703.371 706.772,703.398 C 706.772,703.398 706.771,703.398 706.771,703.398 L 706.758,703.403 C 706.734,703.412 706.71,703.421 706.686,703.429 L 673.769,715.399 C 673.107,715.64 672.381,715.64 671.719,715.399 L 638.802,703.429 C 638.778,703.421 638.755,703.412 638.731,703.403 L 638.717,703.398 C 638.717,703.398 638.716,703.398 638.716,703.398 C 638.643,703.371 638.572,703.342 638.501,703.31 C 637.603,702.909 637.05,702.167 636.84,701.344 C 636.837,701.332 636.834,701.32 636.831,701.308 C 636.82,701.264 636.81,701.221 636.802,701.176 C 636.795,701.146 636.79,701.116 636.785,701.085 C 636.78,701.052 636.774,701.02 636.77,700.987 C 636.764,700.943 636.76,700.899 636.756,700.855 C 636.754,700.832 636.751,700.809 636.749,700.786 C 636.745,700.717 636.742,700.648 636.742,700.578 L 636.742,658.576 C 636.742,657.315 637.531,656.188 638.717,655.757 L 671.719,643.756 C 671.719,643.756 671.719,643.756 671.72,643.756 C 671.95,643.671 672.193,643.615 672.442,643.589 C 672.447,643.589 672.452,643.588 672.458,643.587 C 672.504,643.583 672.55,643.58 672.597,643.578 C 672.614,643.577 672.631,643.576 672.648,643.575 C 672.68,643.574 672.712,643.574 672.744,643.574 C 672.776,643.574 672.808,643.574 672.84,643.575 C 672.857,643.576 672.874,643.577 672.891,643.578 C 672.938,643.58 672.984,643.583 673.03,643.587 C 673.036,643.588 673.041,643.589 673.046,643.589 C 673.295,643.615 673.538,643.671 673.768,643.756 C 673.769,643.756 673.769,643.756 673.769,643.756 L 706.771,655.757 C 707.957,656.188 708.746,657.315 708.746,658.576 L 708.746,700.579 C 708.746,700.579 708.746,700.58 708.746,700.581 Z M 656.772,697.579 L 688.716,697.579 L 672.744,691.771 L 656.772,697.579 Z M 672.744,709.387 L 688.716,703.579 L 656.772,703.579 L 672.744,709.387 Z M 642.742,696.296 L 669.744,686.477 L 669.744,650.859 L 642.742,660.678 L 642.742,696.296 Z M 702.746,660.678 L 675.744,650.859 L 675.744,686.477 L 693.84,693.057 L 702.746,696.295 L 702.746,660.678 Z" fill="#ffffff" stroke="none" stroke-width="0.141" fill-rule="nonzero" stroke-linejoin="miter" marker-start="none" marker-end="none"/>
 </g>
</svg>
