<?xml version="1.0" standalone="no"?>
<!DOCTYPE svg PUBLIC "-//W3C//DTD SVG 1.1//EN" "http://www.w3.org/Graphics/SVG/1.1/DTD/svg11.dtd">
<!--Generator: Xara Designer (www.xara.com), SVG filter version: 6.6.0.0-->
<svg fill="none" fill-rule="evenodd" stroke="black" stroke-width="0.501" stroke-linejoin="bevel" stroke-miterlimit="10" font-family="Times New Roman" font-size="16" style="font-variant-ligatures:none" xmlns:xlink="http://www.w3.org/1999/xlink" xmlns="http://www.w3.org/2000/svg" version="1.1" overflow="visible" width="72pt" height="54pt" viewBox="342.485 -446.399 72 54">
 <defs>
	</defs>
 <g id="Page background" transform="scale(1 -1)"/>
 <g id="Layer 1" transform="scale(1 -1)">
  <path d="M 378.749,446.399 C 355.985,446.399 342.485,419.399 342.485,419.399 C 342.485,419.399 355.985,392.399 378.749,392.399 C 400.985,392.399 414.485,419.399 414.485,419.399 C 414.485,419.399 400.985,446.399 378.749,446.399 Z M 378.485,437.399 C 388.469,437.399 396.485,429.299 396.485,419.399 C 396.485,409.403 388.469,401.399 378.485,401.399 C 368.585,401.399 360.485,409.403 360.485,419.399 C 360.485,429.299 368.585,437.399 378.485,437.399 Z M 378.485,428.399 C 373.529,428.399 369.485,424.343 369.485,419.399 C 369.485,414.443 373.529,410.399 378.485,410.399 C 383.429,410.399 387.485,414.443 387.485,419.399 C 387.485,420.299 387.125,421.103 386.945,421.919 C 386.225,420.479 384.773,419.399 382.985,419.399 C 380.453,419.399 378.485,421.379 378.485,423.899 C 378.485,425.699 379.565,427.139 381.005,427.859 C 380.189,428.123 379.385,428.399 378.485,428.399 Z" fill="#ffffff" stroke="none" stroke-width="0.75" fill-rule="nonzero" stroke-linejoin="miter" marker-start="none" marker-end="none"/>
 </g>
</svg>
