<?xml version="1.0" standalone="no"?>
<!DOCTYPE svg PUBLIC "-//W3C//DTD SVG 1.1//EN" "http://www.w3.org/Graphics/SVG/1.1/DTD/svg11.dtd">
<!--Generator: Xara Designer (www.xara.com), SVG filter version: 6.6.0.0-->
<svg fill="none" fill-rule="evenodd" stroke="black" stroke-width="0.501" stroke-linejoin="bevel" stroke-miterlimit="10" font-family="Times New Roman" font-size="16" style="font-variant-ligatures:none" xmlns:xlink="http://www.w3.org/1999/xlink" xmlns="http://www.w3.org/2000/svg" version="1.1" overflow="visible" width="72pt" height="72pt" viewBox="394.201 -655.2 72 72">
 <defs>
	</defs>
 <g id="Page background" transform="scale(1 -1)"/>
 <g id="Layer 1" transform="scale(1 -1)">
  <path d="M 394.201,619.203 L 394.201,621.97 L 412.776,621.97 L 412.835,623.466 C 413.751,634.469 418.093,642.558 421.982,647.737 L 422.75,648.707 L 420.52,648.092 C 415.449,646.393 410.979,643.4 407.494,639.506 C 406.47,638.368 404.717,638.27 403.58,639.289 C 402.443,640.313 402.344,642.066 403.363,643.203 C 409.955,650.558 419.536,655.2 430.204,655.2 C 450.078,655.2 466.201,639.077 466.201,619.203 C 466.201,599.319 450.078,583.2 430.204,583.2 C 410.32,583.2 394.201,599.319 394.201,619.203 Z M 442.083,616.431 L 418.315,616.431 L 418.354,615.417 C 419.477,601.992 426.334,593.519 429.825,590.024 L 430.199,589.664 L 430.573,590.024 C 434.064,593.519 440.921,601.992 442.044,615.417 L 442.083,616.431 Z M 460.52,616.431 L 447.622,616.431 L 447.563,614.935 C 446.647,603.927 442.305,595.838 438.416,590.664 L 437.648,589.694 L 439.257,590.108 C 450.699,593.667 459.255,603.794 460.505,616.087 L 460.52,616.431 Z M 412.776,616.431 L 399.878,616.431 L 399.893,616.087 C 401.143,603.794 409.694,593.667 421.141,590.108 L 422.75,589.694 L 421.982,590.664 C 418.093,595.838 413.751,603.927 412.835,614.935 L 412.776,616.431 Z M 437.623,648.712 L 439.085,646.812 C 441.276,643.735 443.541,639.752 445.205,634.858 C 445.697,633.411 444.919,631.84 443.472,631.348 C 442.024,630.856 440.454,631.634 439.961,633.081 C 437.505,640.298 433.576,645.246 431.026,647.904 L 430.189,648.727 L 429.825,648.372 C 426.334,644.877 419.477,636.404 418.354,622.984 L 418.315,621.97 L 460.52,621.97 L 460.505,622.314 C 459.255,634.597 450.699,644.729 439.257,648.288 L 437.623,648.712 Z" stroke="none" fill-rule="evenodd" fill="#ffffff" stroke-width="0.5" marker-start="none" marker-end="none"/>
 </g>
</svg>
