<?xml version="1.0" standalone="no"?>
<!DOCTYPE svg PUBLIC "-//W3C//DTD SVG 1.1//EN" "http://www.w3.org/Graphics/SVG/1.1/DTD/svg11.dtd">
<!--Generator: Xara Designer (www.xara.com), SVG filter version: 6.6.0.0-->
<svg fill="none" fill-rule="evenodd" stroke="black" stroke-width="0.501" stroke-linejoin="bevel" stroke-miterlimit="10" font-family="Times New Roman" font-size="16" style="font-variant-ligatures:none" xmlns:xlink="http://www.w3.org/1999/xlink" xmlns="http://www.w3.org/2000/svg" version="1.1" overflow="visible" width="72pt" height="72pt" viewBox="513.088 -518.402 72 72">
 <defs>
	</defs>
 <g id="Page background" transform="scale(1 -1)"/>
 <g id="Layer 1" transform="scale(1 -1)">
  <path d="M 513.088,482.399 C 513.085,502.281 529.205,518.399 549.088,518.402 C 568.967,518.402 585.088,502.281 585.088,482.402 C 585.088,462.519 568.967,446.402 549.088,446.402 C 529.205,446.402 513.088,462.519 513.088,482.399 Z M 579.945,482.399 C 579.945,499.443 566.129,513.256 549.088,513.256 C 532.044,513.256 518.231,499.443 518.231,482.402 C 518.227,465.358 532.044,451.541 549.088,451.545 L 549.088,451.541 C 566.129,451.541 579.945,465.358 579.945,482.399 Z M 545.231,463.116 C 545.231,465.245 546.959,466.973 549.088,466.973 C 551.217,466.973 552.945,465.245 552.945,463.116 C 552.945,460.987 551.217,459.259 549.088,459.259 C 546.959,459.259 545.231,460.987 545.231,463.116 Z M 546.517,473.402 L 546.517,484.973 L 551.659,484.973 C 555.208,484.973 558.088,487.85 558.088,491.402 C 558.088,494.95 555.208,497.831 551.659,497.831 L 547.802,497.831 C 544.25,497.831 541.374,494.95 541.374,491.402 L 541.374,490.116 L 536.231,490.116 L 536.231,491.398 C 536.224,494.47 537.438,497.42 539.612,499.59 C 541.782,501.764 544.73,502.977 547.802,502.974 L 551.659,502.974 C 558.047,502.974 563.232,497.79 563.232,491.398 C 563.232,485.011 558.047,479.831 551.659,479.831 L 551.659,473.402 L 546.517,473.402 Z" stroke-linejoin="miter" stroke-width="0.75" fill="#ffffff" stroke="none" fill-rule="nonzero" marker-start="none" marker-end="none"/>
 </g>
</svg>
