<?xml version="1.0" standalone="no"?>
<!DOCTYPE svg PUBLIC "-//W3C//DTD SVG 1.1//EN" "http://www.w3.org/Graphics/SVG/1.1/DTD/svg11.dtd">
<!--Generator: Xara Designer (www.xara.com), SVG filter version: 6.6.0.1-->
<svg fill="none" fill-rule="evenodd" stroke="black" stroke-width="0.501" stroke-linejoin="bevel" stroke-miterlimit="10" font-family="Times New Roman" font-size="16" style="font-variant-ligatures:none" xmlns:xlink="http://www.w3.org/1999/xlink" xmlns="http://www.w3.org/2000/svg" version="1.1" overflow="visible" width="71.997pt" height="71.988pt" viewBox="415.027 -659.799 71.997 71.988">
 <defs>
	</defs>
 <g id="Page background" transform="scale(1 -1)"/>
 <g id="Layer 1" transform="scale(1 -1)">
  <path d="M 481.889,629.841 L 470.075,618.027 C 468.99,616.942 467.544,616.344 466.004,616.344 C 464.463,616.344 463.017,616.942 461.932,618.027 L 460.605,619.354 C 459.481,620.478 459.481,622.301 460.605,623.425 C 461.729,624.548 463.551,624.548 464.675,623.425 L 466.002,622.097 L 477.819,633.911 C 482.421,638.513 482.421,646.001 477.819,650.604 C 473.217,655.205 465.728,655.206 461.127,650.604 L 449.313,638.789 L 455.622,632.477 L 462.129,638.983 C 463.253,640.107 465.075,640.107 466.199,638.983 C 467.323,637.859 467.323,636.037 466.199,634.913 L 450.489,619.203 L 456.798,612.894 C 457.883,611.809 458.481,610.363 458.481,608.822 C 458.481,607.282 457.884,605.835 456.798,604.75 L 444.984,592.936 C 441.679,589.632 437.27,587.811 432.569,587.811 C 432.568,587.811 432.569,587.811 432.568,587.811 C 427.867,587.811 423.457,589.632 420.152,592.937 C 416.847,596.242 415.027,600.652 415.027,605.353 C 415.027,610.055 416.847,614.464 420.152,617.769 L 431.966,629.583 C 433.051,630.668 434.497,631.266 436.037,631.267 C 437.578,631.267 439.024,630.669 440.109,629.583 L 441.436,628.256 C 442.56,627.132 442.56,625.309 441.436,624.186 C 440.312,623.062 438.49,623.062 437.366,624.186 L 436.039,625.513 L 424.222,613.699 C 419.62,609.097 419.62,601.609 424.222,597.007 C 428.824,592.405 436.312,592.404 440.914,597.006 L 452.728,608.821 L 446.419,615.133 L 439.911,608.626 C 438.787,607.502 436.965,607.502 435.841,608.626 C 434.717,609.75 434.717,611.572 435.841,612.696 L 444.381,621.236 C 444.382,621.237 444.383,621.238 444.384,621.239 C 444.385,621.24 444.386,621.241 444.387,621.241 L 451.552,628.407 L 445.243,634.717 C 444.158,635.802 443.56,637.248 443.56,638.788 C 443.56,640.329 444.158,641.775 445.243,642.86 L 457.057,654.674 C 460.361,657.979 464.771,659.799 469.472,659.799 C 469.473,659.799 469.472,659.799 469.473,659.799 C 474.175,659.799 478.584,657.979 481.889,654.673 C 488.735,647.827 488.735,636.688 481.889,629.841 Z" fill="#ffffff" stroke="none" stroke-width="0.262" fill-rule="nonzero" stroke-linejoin="miter" marker-start="none" marker-end="none"/>
 </g>
</svg>
