<?xml version="1.0" standalone="no"?>
<!DOCTYPE svg PUBLIC "-//W3C//DTD SVG 1.1//EN" "http://www.w3.org/Graphics/SVG/1.1/DTD/svg11.dtd">
<!--Generator: Xara Designer (www.xara.com), SVG filter version: 6.6.0.0-->
<svg fill="none" fill-rule="evenodd" stroke="black" stroke-width="0.501" stroke-linejoin="bevel" stroke-miterlimit="10" font-family="Times New Roman" font-size="16" style="font-variant-ligatures:none" xmlns:xlink="http://www.w3.org/1999/xlink" xmlns="http://www.w3.org/2000/svg" version="1.1" overflow="visible" width="49.422pt" height="71.998pt" viewBox="424.838 -401.398 49.422 71.998">
 <defs>
	</defs>
 <g id="Page background" transform="scale(1 -1)"/>
 <g id="Layer 1" transform="scale(1 -1)">
  <path d="M 471.54,370.367 L 471.54,379.407 C 471.54,391.532 461.675,401.398 449.549,401.398 C 437.423,401.398 427.558,391.532 427.558,379.407 L 427.558,370.452 C 426.191,369.931 424.838,368.754 424.838,366.422 L 424.838,354.111 C 424.838,340.486 435.924,329.4 449.549,329.4 C 463.175,329.4 474.26,340.486 474.26,354.111 L 474.26,366.422 C 474.26,368.635 472.94,369.807 471.54,370.367 Z M 454.246,343.914 C 454.323,343.504 454.045,343.169 453.628,343.169 L 445.563,343.169 C 445.146,343.169 444.868,343.504 444.945,343.914 L 446.237,350.76 C 445.251,351.659 444.632,352.954 444.632,354.394 C 444.632,357.109 446.834,359.31 449.549,359.31 C 452.264,359.31 454.466,357.109 454.466,354.394 C 454.466,352.993 453.879,351.731 452.94,350.835 L 454.246,343.914 Z M 463.957,370.806 L 435.141,370.806 L 435.141,379.407 C 435.141,387.351 441.604,393.815 449.549,393.815 C 457.494,393.815 463.957,387.351 463.957,379.407 L 463.957,370.806 Z" fill="#ffffff" stroke="none" stroke-width="1.58" fill-rule="nonzero" stroke-linejoin="miter" marker-start="none" marker-end="none"/>
 </g>
</svg>
