<?xml version="1.0" standalone="no"?>
<!DOCTYPE svg PUBLIC "-//W3C//DTD SVG 1.1//EN" "http://www.w3.org/Graphics/SVG/1.1/DTD/svg11.dtd">
<!--Generator: Xara Designer (www.xara.com), SVG filter version: 6.6.0.0-->
<svg fill="none" fill-rule="evenodd" stroke="black" stroke-width="0.501" stroke-linejoin="bevel" stroke-miterlimit="10" font-family="Times New Roman" font-size="16" style="font-variant-ligatures:none" xmlns:xlink="http://www.w3.org/1999/xlink" xmlns="http://www.w3.org/2000/svg" version="1.1" overflow="visible" width="61.714pt" height="72pt" viewBox="487.373 -655.2 61.714 72">
 <defs>
	</defs>
 <g id="Page background" transform="scale(1 -1)"/>
 <g id="Layer 1" transform="scale(1 -1)">
  <path d="M 497.659,631.2 L 497.659,634.629 C 497.659,645.989 506.865,655.2 518.23,655.2 C 529.59,655.2 538.801,645.989 538.801,634.624 L 538.801,631.2 L 545.659,631.2 C 547.551,631.2 549.087,629.664 549.087,627.771 L 549.087,586.629 C 549.087,584.731 547.551,583.2 545.659,583.2 L 490.801,583.2 C 488.904,583.2 487.373,584.731 487.373,586.629 L 487.373,627.771 C 487.373,629.664 488.904,631.2 490.801,631.2 L 497.659,631.2 Z M 542.23,624.343 L 494.23,624.343 L 494.23,590.057 L 542.23,590.057 L 542.23,624.343 Z M 514.801,604.686 C 512.113,606.24 510.801,609.403 511.606,612.402 C 512.406,615.401 515.126,617.486 518.23,617.486 C 521.329,617.486 524.049,615.401 524.849,612.402 C 525.654,609.403 524.342,606.24 521.659,604.686 L 521.659,596.914 L 514.801,596.914 L 514.801,604.686 Z M 504.516,631.2 L 531.944,631.2 L 531.944,634.629 C 531.944,642.199 525.8,648.343 518.23,648.343 C 510.655,648.343 504.516,642.199 504.516,634.629 L 504.516,631.2 Z" fill-rule="nonzero" stroke-linejoin="miter" stroke="none" stroke-width="0.75" fill="#ffffff" marker-start="none" marker-end="none"/>
 </g>
</svg>
