<?xml version="1.0" standalone="no"?>
<!DOCTYPE svg PUBLIC "-//W3C//DTD SVG 1.1//EN" "http://www.w3.org/Graphics/SVG/1.1/DTD/svg11.dtd">
<!--Generator: Xara Designer (www.xara.com), SVG filter version: 6.6.0.1-->
<svg fill="none" fill-rule="evenodd" stroke="black" stroke-width="0.501" stroke-linejoin="bevel" stroke-miterlimit="10" font-family="Times New Roman" font-size="16" style="font-variant-ligatures:none" xmlns:xlink="http://www.w3.org/1999/xlink" xmlns="http://www.w3.org/2000/svg" version="1.1" overflow="visible" width="72.969pt" height="72.969pt" viewBox="269.516 -756.624 72.969 72.969">
 <defs>
	</defs>
 <g id="Page background" transform="scale(1 -1)"/>
 <g id="Layer 1" transform="scale(1 -1)">
  <path d="M 280.191,745.949 C 294.423,760.181 317.578,760.182 331.81,745.95 C 346.042,731.718 346.043,708.561 331.811,694.329 C 317.578,680.096 294.422,680.098 280.19,694.33 C 265.958,708.562 265.958,731.716 280.191,745.949 Z M 327.765,698.375 C 339.765,710.375 339.765,729.903 327.764,741.904 C 315.764,753.904 296.237,753.903 284.237,741.903 C 272.236,729.902 272.236,710.376 284.236,698.376 C 296.237,686.375 315.764,686.374 327.765,698.375 Z M 293.861,712.045 L 301.955,720.139 L 293.862,728.232 C 292.744,729.35 292.744,731.16 293.861,732.277 C 294.979,733.394 296.79,733.395 297.907,732.277 L 306,724.184 L 314.095,732.279 C 315.211,733.395 317.022,733.396 318.14,732.278 C 319.257,731.161 319.257,729.349 318.141,728.233 L 310.047,720.139 L 318.14,712.046 C 319.257,710.929 319.257,709.117 318.14,708 C 317.022,706.882 315.211,706.883 314.094,708 L 306,716.094 L 297.907,708 C 296.79,706.883 294.979,706.884 293.861,708.001 C 292.744,709.118 292.744,710.928 293.861,712.045 Z" fill="#ffffff" fill-rule="evenodd" stroke="none" stroke-width="0.5" marker-start="none" marker-end="none"/>
 </g>
</svg>
