<?xml version="1.0" standalone="no"?>
<!DOCTYPE svg PUBLIC "-//W3C//DTD SVG 1.1//EN" "http://www.w3.org/Graphics/SVG/1.1/DTD/svg11.dtd">
<!--Generator: Xara Designer (www.xara.com), SVG filter version: 6.6.0.1-->
<svg fill="none" fill-rule="evenodd" stroke="black" stroke-width="0.501" stroke-linejoin="bevel" stroke-miterlimit="10" font-family="Times New Roman" font-size="16" style="font-variant-ligatures:none" xmlns:xlink="http://www.w3.org/1999/xlink" xmlns="http://www.w3.org/2000/svg" version="1.1" overflow="visible" width="72.006pt" height="71.999pt" viewBox="735.746 -715.595 72.006 71.999">
 <defs>
	</defs>
 <g id="Page background" transform="scale(1 -1)"/>
 <g id="Layer 1" transform="scale(1 -1)">
  <g id="Group" fill="#ffffff" fill-rule="nonzero" stroke-linejoin="miter" stroke="none" stroke-width="3.623">
   <path d="M 771.747,703.271 C 758.691,703.271 748.066,692.645 748.066,679.59 C 748.066,666.534 758.691,655.909 771.747,655.909 C 784.803,655.909 795.432,666.534 795.432,679.59 C 795.432,692.645 784.803,703.271 771.747,703.271 Z M 771.747,661.651 C 761.858,661.651 753.808,669.7 753.808,679.59 C 753.808,689.479 761.858,697.529 771.747,697.529 C 781.64,697.529 789.69,689.479 789.69,679.59 C 789.69,669.7 781.64,661.651 771.747,661.651 Z" marker-start="none" marker-end="none"/>
   <path d="M 771.747,715.595 C 751.895,715.595 735.746,699.445 735.746,679.597 C 735.746,659.749 751.895,643.596 771.747,643.596 C 791.603,643.596 807.752,659.745 807.752,679.597 C 807.752,699.445 791.603,715.595 771.747,715.595 Z M 771.747,649.334 C 755.062,649.334 741.488,662.904 741.488,679.593 C 741.488,696.279 755.062,709.853 771.747,709.853 C 788.433,709.853 802.007,696.279 802.007,679.593 C 802.007,662.908 788.433,649.334 771.747,649.334 Z" marker-start="none" marker-end="none"/>
  </g>
 </g>
</svg>
