<?xml version="1.0" standalone="no"?>
<!DOCTYPE svg PUBLIC "-//W3C//DTD SVG 1.1//EN" "http://www.w3.org/Graphics/SVG/1.1/DTD/svg11.dtd">
<!--Generator: Xara Designer (www.xara.com), SVG filter version: 6.6.0.0-->
<svg fill="none" fill-rule="evenodd" stroke="black" stroke-width="0.501" stroke-linejoin="bevel" stroke-miterlimit="10" font-family="Times New Roman" font-size="16" style="font-variant-ligatures:none" xmlns:xlink="http://www.w3.org/1999/xlink" xmlns="http://www.w3.org/2000/svg" version="1.1" overflow="visible" width="71.998pt" height="71.998pt" viewBox="477.089 -755.653 71.998 71.998">
 <defs>
	</defs>
 <g id="Page background" transform="scale(1 -1)"/>
 <g id="Layer 1" transform="scale(1 -1)">
  <path d="M 513.088,683.655 C 493.238,683.655 477.089,699.804 477.089,719.654 C 477.089,739.504 493.238,755.653 513.088,755.653 C 532.938,755.653 549.087,739.504 549.087,719.654 C 549.087,699.804 532.938,683.655 513.088,683.655 Z M 532.856,728.513 C 532.217,729.152 531.379,729.472 530.542,729.472 C 529.704,729.472 528.867,729.152 528.228,728.513 L 513.088,713.374 L 497.948,728.513 C 496.67,729.791 494.598,729.791 493.32,728.513 C 492.042,727.235 492.042,725.163 493.32,723.885 L 510.773,706.431 C 511.387,705.817 512.219,705.473 513.087,705.473 C 513.955,705.473 514.787,705.817 515.401,706.431 L 532.856,723.885 C 534.134,725.163 534.134,727.235 532.856,728.513 Z" fill="#ffffff" stroke="none" stroke-width="1.818" fill-rule="nonzero" stroke-linejoin="miter" marker-start="none" marker-end="none"/>
 </g>
</svg>
