<?xml version="1.0" standalone="no"?>
<!DOCTYPE svg PUBLIC "-//W3C//DTD SVG 1.1//EN" "http://www.w3.org/Graphics/SVG/1.1/DTD/svg11.dtd">
<!--Generator: Xara Designer (www.xara.com), SVG filter version: 6.6.0.1-->
<svg fill="none" fill-rule="evenodd" stroke="black" stroke-width="0.501" stroke-linejoin="bevel" stroke-miterlimit="10" font-family="Times New Roman" font-size="16" style="font-variant-ligatures:none" xmlns:xlink="http://www.w3.org/1999/xlink" xmlns="http://www.w3.org/2000/svg" version="1.1" overflow="visible" width="99.802pt" height="72.001pt" viewBox="502.845 -715.595 99.802 72.001">
 <defs>
	</defs>
 <g id="Page background" transform="scale(1 -1)"/>
 <g id="Layer 1" transform="scale(1 -1)">
  <g id="Group" fill="#ffffff" fill-rule="nonzero" stroke-linejoin="miter" stroke="none" stroke-width="0.476">
   <path d="M 585.226,715.595 L 520.266,715.595 C 510.66,715.595 502.845,707.777 502.845,698.169 L 502.845,661.018 C 502.845,651.41 510.66,643.594 520.266,643.594 L 585.227,643.594 C 594.832,643.594 602.647,651.41 602.647,661.018 L 602.647,698.169 C 602.647,707.777 594.832,715.595 585.226,715.595 Z M 595.507,661.019 C 595.507,655.348 590.895,650.734 585.226,650.734 L 520.266,650.734 C 514.597,650.734 509.985,655.348 509.985,661.019 L 509.985,698.17 C 509.985,703.841 514.597,708.455 520.266,708.455 L 585.227,708.455 C 590.895,708.455 595.507,703.841 595.507,698.17 L 595.507,661.019 Z" marker-start="none" marker-end="none"/>
   <path d="M 571.908,682.577 L 545.445,700.022 C 544.349,700.745 542.944,700.807 541.788,700.185 C 540.632,699.562 539.911,698.354 539.911,697.041 L 539.911,662.147 C 539.911,660.834 540.632,659.627 541.788,659.004 C 542.318,658.718 542.9,658.577 543.48,658.577 C 544.166,658.577 544.851,658.775 545.445,659.167 L 571.908,676.616 C 572.91,677.277 573.513,678.396 573.513,679.597 C 573.513,680.797 572.91,681.916 571.908,682.577 Z M 547.05,668.777 L 547.05,690.412 L 563.458,679.596 L 547.05,668.777 Z" marker-start="none" marker-end="none"/>
  </g>
 </g>
</svg>
